HIERARCHY
ROOT root
{
  OFFSET 0 98.6856 0
  CHANNELS 6 Xposition Yposition Zposition Zrotation Xrotation Yrotation
  JOINT torso_1
  {
    OFFSET 0 5.37224 -1.21793
    CHANNELS 6 Xposition Yposition Zposition Zrotation Xrotation Yrotation
    JOINT torso_2
    {
      OFFSET 0 5.94127 1.13336
      CHANNELS 6 Xposition Yposition Zposition Zrotation Xrotation Yrotation
      JOINT torso_3
      {
        OFFSET -1.08535e-17 6.33601 0.121658
        CHANNELS 6 Xposition Yposition Zposition Zrotation Xrotation Yrotation
        JOINT torso_4
        {
          OFFSET -1.16841e-17 6.88189 -0.46916
          CHANNELS 6 Xposition Yposition Zposition Zrotation Xrotation Yrotation
          JOINT torso_5
          {
            OFFSET -2.08699e-17 8.0451 -1.59297
            CHANNELS 6 Xposition Yposition Zposition Zrotation Xrotation Yrotation
            JOINT torso_6
            {
              OFFSET -2.67949e-17 10.0463 -0.967353
              CHANNELS 6 Xposition Yposition Zposition Zrotation Xrotation Yrotation
              JOINT torso_7
              {
                OFFSET -3.07187e-17 11.1612 1.66806
                CHANNELS 6 Xposition Yposition Zposition Zrotation Xrotation Yrotation
                JOINT neck_1
                {
                  OFFSET -1.36661e-17 5.06312 0.756688
                  CHANNELS 6 Xposition Yposition Zposition Zrotation Xrotation Yrotation
                  JOINT neck_2
                  {
                    OFFSET -1.91632e-17 5.09976 0.446172
                    CHANNELS 6 Xposition Yposition Zposition Zrotation Xrotation Yrotation
                    JOINT head
                    {
                      OFFSET -2.12574e-17 5.10962 0.809285
                      CHANNELS 6 Xposition Yposition Zposition Zrotation Xrotation Yrotation
                      End Site
                      {
                        OFFSET 0 0.1 0
                      }
                    }
                  }
                }
                JOINT l_shoulder
                {
                  OFFSET 1.30426 -8.04703 7.96922
                  CHANNELS 6 Xposition Yposition Zposition Zrotation Xrotation Yrotation
                  JOINT l_up_arm
                  {
                    OFFSET 13.7035 3.43734 -3.45766
                    CHANNELS 6 Xposition Yposition Zposition Zrotation Xrotation Yrotation
                    JOINT l_low_arm
                    {
                      OFFSET 30.8964 0.0632652 0.14496
                      CHANNELS 6 Xposition Yposition Zposition Zrotation Xrotation Yrotation
                      JOINT l_hand
                      {
                        OFFSET 25.6348 0.0524902 0.120274
                        CHANNELS 6 Xposition Yposition Zposition Zrotation Xrotation Yrotation
                        End Site
                        {
                          OFFSET 0.1 0 0
                        }
                      }
                    }
                  }
                }
                JOINT r_shoulder
                {
                  OFFSET -1.30426 -8.04702 7.96912
                  CHANNELS 6 Xposition Yposition Zposition Zrotation Xrotation Yrotation
                  JOINT r_up_arm
                  {
                    OFFSET -13.7035 3.43734 -3.45766
                    CHANNELS 6 Xposition Yposition Zposition Zrotation Xrotation Yrotation
                    JOINT r_low_arm
                    {
                      OFFSET -30.8964 0.0632652 0.14496
                      CHANNELS 6 Xposition Yposition Zposition Zrotation Xrotation Yrotation
                      JOINT r_hand
                      {
                        OFFSET -25.6348 0.0524901 0.120274
                        CHANNELS 6 Xposition Yposition Zposition Zrotation Xrotation Yrotation
                        End Site
                        {
                          OFFSET -0.1 0 0
                        }
                      }
                    }
                  }
                }
              }
            }
          }
        }
      }
    }
  }
  JOINT l_up_leg
  {
    OFFSET 9.77065 -4.44866 2.1502
    CHANNELS 6 Xposition Yposition Zposition Zrotation Xrotation Yrotation
    JOINT l_low_leg
    {
      OFFSET -0.901622 -41.0132 -0.693059
      CHANNELS 6 Xposition Yposition Zposition Zrotation Xrotation Yrotation
      JOINT l_foot
      {
        OFFSET -2.46068 -42.7371 -6.39839
        CHANNELS 6 Xposition Yposition Zposition Zrotation Xrotation Yrotation
        JOINT l_toes
        {
          OFFSET 0.82413 -10.4558 13.2182
          CHANNELS 6 Xposition Yposition Zposition Zrotation Xrotation Yrotation
          End Site
          {
            OFFSET 0 0 0.1
          }
        }
      }
    }
  }
  JOINT r_up_leg
  {
    OFFSET -9.77065 -4.44866 2.1502
    CHANNELS 6 Xposition Yposition Zposition Zrotation Xrotation Yrotation
    JOINT r_low_leg
    {
      OFFSET 0.901622 -41.0132 -0.693059
      CHANNELS 6 Xposition Yposition Zposition Zrotation Xrotation Yrotation
      JOINT r_foot
      {
        OFFSET 2.46068 -42.7371 -6.39839
        CHANNELS 6 Xposition Yposition Zposition Zrotation Xrotation Yrotation
        JOINT r_toes
        {
          OFFSET -0.82413 -10.4558 13.2182
          CHANNELS 6 Xposition Yposition Zposition Zrotation Xrotation Yrotation
          End Site
          {
            OFFSET 0 0 0.1
          }
        }
      }
    }
  }
}
MOTION
Frames: 4
Frame Time: 0.02
0 98.6856 0 -0 0 -0 0 5.37224 -1.21793 -0 0 -0 0 5.94127 1.13336 -0 0 -0 -1.08535e-17 6.33601 0.121658 -0 0 -0 -1.16841e-17 6.88189 -0.46916 -0 0 -0 -2.08699e-17 8.0451 -1.59297 -0 0 -0 -2.67949e-17 10.0463 -0.967353 -0 0 -0 -3.07187e-17 11.1612 1.66806 -0 0 -0 -1.36661e-17 5.06312 0.756688 -0 0 -0 -1.91632e-17 5.09976 0.446172 -0 0 -0 -2.12574e-17 5.10962 0.809285 -0 0 -0 1.30426 -8.04703 7.96922 -0 0 -0 13.7035 3.43734 -3.45766 -0 0 -0 30.8964 0.0632652 0.14496 -0 0 -0 25.6348 0.0524902 0.120274 -0 0 -0 -1.30426 -8.04702 7.96912 -0 0 -0 -13.7035 3.43734 -3.45766 -0 0 -0 -30.8964 0.0632652 0.14496 -0 0 -0 -25.6348 0.0524901 0.120274 -0 0 -0 9.77065 -4.44866 2.1502 -0 0 -0 -0.901622 -41.0132 -0.693059 -0 0 -0 -2.46068 -42.7371 -6.39839 -0 0 -0 0.82413 -10.4558 13.2182 -0 0 -0 -9.77065 -4.44866 2.1502 -0 0 -0 0.901622 -41.0132 -0.693059 -0 0 -0 2.46068 -42.7371 -6.39839 -0 0 -0 -0.82413 -10.4558 13.2182 -0 0 -0 
-4.05955 98.64 -40.0368 2.35992 0.803931 -1.70155 0 5.37224 -1.21793 -2.47711 1.68764 0.0398132 0 5.94127 1.13336 -2.11309 1.48423 -0.218172 -1.08535e-17 6.33601 0.121658 -1.55167 1.48248 -0.131768 -1.16841e-17 6.88189 -0.46916 -1.00482 1.40393 -0.0906576 -2.08699e-17 8.0451 -1.59297 -0.42185 1.05874 0.00437805 -2.67949e-17 10.0463 -0.967353 0.0605385 0.916389 -0.162009 -3.07187e-17 11.1612 1.66806 -0.00363527 0.0967688 -0.0139682 -1.36661e-17 5.06312 0.756688 1.01309 -1.33171 4.16826 -1.91632e-17 5.09976 0.446172 1.48321 -5.69744 1.52006 -2.12574e-17 5.10962 0.809285 1.43137 -2.65536 -2.19925 1.30426 -8.04703 7.96922 4.71732 1.56959 -1.22291 13.7035 3.43734 -3.45766 -88.1771 12.7204 1.83123 30.8964 0.0632652 0.14496 1.05489 -0.0412913 -5.09063 25.6348 0.0524902 0.120274 0.201339 -6.25642 1.07562 -1.30426 -8.04702 7.96912 -4.29731 3.6948 0.0203895 -13.7035 3.43734 -3.45766 92.8567 32.6979 -1.90436 -30.8964 0.0632652 0.14496 -1.59872 -0.099685 7.72651 -25.6348 0.0524901 0.120274 4.45306 -28.1906 -1.83724 9.77065 -4.44866 2.1502 -1.65742 -1.54086 -12.3006 -0.901622 -41.0132 -0.693059 -0.820558 3.06459 -0.0315512 -2.46068 -42.7371 -6.39839 2.57173 0.545092 14.6925 0.82413 -10.4558 13.2182 -1.14301e-15 -8.44835e-16 6.21202e-17 -9.77065 -4.44866 2.1502 -5.06683 -9.37127 18.2498 0.901622 -41.0132 -0.693059 4.09562 15.0555 -0.276956 2.46068 -42.7371 -6.39839 -0.20069 -3.16509 -15.4645 -0.82413 -10.4558 13.2182 -5.96354e-16 -5.59082e-16 -1.27471e-14 
-4.41522 98.7067 -39.915 2.32666 1.5582 -1.23037 0 5.37224 -1.21793 -2.45945 1.87235 -0.0169681 0 5.94127 1.13336 -2.09954 1.61821 -0.270493 -1.08535e-17 6.33601 0.121658 -1.54066 1.54799 -0.156425 -1.16841e-17 6.88189 -0.46916 -1.01158 1.33163 -0.106218 -2.08699e-17 8.0451 -1.59297 -0.435761 0.94934 -0.00226127 -2.67949e-17 10.0463 -0.967353 0.0282576 0.80763 -0.1494 -3.07187e-17 11.1612 1.66806 -0.00387853 0.097218 -0.0140594 -1.36661e-17 5.06312 0.756688 0.949809 -1.03503 4.29232 -1.91632e-17 5.09976 0.446172 1.80805 -6.54643 1.62945 -2.12574e-17 5.10962 0.809285 0.895098 -3.12936 -2.96882 1.30426 -8.04703 7.96922 5.82713 1.20944 -0.0820442 13.7035 3.43734 -3.45766 -88.7321 9.15719 3.69199 30.8964 0.0632652 0.14496 1.11667 -0.046639 -5.38951 25.6348 0.0524902 0.120274 0.88782 -0.747819 1.82474 -1.30426 -8.04702 7.96912 -6.27261 3.40021 -1.34834 -13.7035 3.43734 -3.45766 95.7571 29.7305 -5.34418 -30.8964 0.0632652 0.14496 -1.7598 -0.121813 8.51003 -25.6348 0.0524901 0.120274 3.87567 -24.7598 -2.44446 9.77065 -4.44866 2.1502 -1.3731 -2.96882 -12.6323 -0.901622 -41.0132 -0.693059 -1.14072 4.25951 -0.0319558 -2.46068 -42.7371 -6.39839 2.29495 0.377627 14.7607 0.82413 -10.4558 13.2182 -7.45443e-16 -8.32411e-16 4.96962e-17 -9.77065 -4.44866 2.1502 -4.83534 -9.62922 17.9734 0.901622 -41.0132 -0.693059 3.89801 14.355 -0.239037 2.46068 -42.7371 -6.39839 -0.372825 -3.41418 -15.4522 -0.82413 -10.4558 13.2182 -1.39149e-15 -5.34234e-16 -1.27098e-14 
-4.80649 98.766 -39.814 2.36607 2.6095 -0.642177 0 5.37224 -1.21793 -2.40785 2.01647 -0.0325502 0 5.94127 1.13336 -2.06226 1.72633 -0.276336 -1.08535e-17 6.33601 0.121658 -1.51484 1.60836 -0.135527 -1.16841e-17 6.88189 -0.46916 -1.01385 1.27865 -0.0783599 -2.08699e-17 8.0451 -1.59297 -0.444782 0.887216 0.0393381 -2.67949e-17 10.0463 -0.967353 0.0106433 0.755176 -0.089062 -3.07187e-17 11.1612 1.66806 -0.00359956 0.0983061 -0.0126639 -1.36661e-17 5.06312 0.756688 0.876068 -1.15995 4.27721 -1.91632e-17 5.09976 0.446172 1.99344 -7.30078 1.67443 -2.12574e-17 5.10962 0.809285 0.180386 -3.52163 -3.83908 1.30426 -8.04703 7.96922 6.90545 0.963287 1.05814 13.7035 3.43734 -3.45766 -89.0545 6.99627 5.37146 30.8964 0.0632652 0.14496 1.28776 -0.0631399 -6.21794 25.6348 0.0524902 0.120274 1.1544 3.2227 2.58317 -1.30426 -8.04702 7.96912 -7.83138 3.26264 -2.56432 -13.7035 3.43734 -3.45766 98.0413 26.764 -8.64072 -30.8964 0.0632652 0.14496 -1.99887 -0.158809 9.67573 -25.6348 0.0524901 0.120274 3.39258 -23.6852 -2.8296 9.77065 -4.44866 2.1502 -1.15972 -4.91589 -13.1704 -0.901622 -41.0132 -0.693059 -1.55357 5.7971 -0.022604 -2.46068 -42.7371 -6.39839 1.96337 0.230709 14.828 0.82413 -10.4558 13.2182 -3.47873e-16 -8.07563e-16 2.48481e-17 -9.77065 -4.44866 2.1502 -4.53607 -10.204 17.8475 0.901622 -41.0132 -0.693059 3.63134 13.4032 -0.191697 2.46068 -42.7371 -6.39839 -0.497105 -4.11204 -15.4657 -0.82413 -10.4558 13.2182 -9.93923e-16 -5.46658e-16 -1.27222e-14 
